# Blender v2.93.4 OBJ File: 'attention_point.blend'
# www.blender.org
mtllib attention_point.mtl
o Sphere
v 0.000000 0.014142 -0.014142
v 0.000000 0.007654 -0.018478
v 0.000000 -0.007654 -0.018478
v 0.000000 -0.018478 -0.007654
v 0.002929 0.018478 -0.007071
v 0.005412 0.014142 -0.013066
v 0.007071 0.007654 -0.017071
v 0.007654 -0.000000 -0.018478
v 0.007071 -0.007654 -0.017071
v 0.005412 -0.014142 -0.013066
v 0.002929 -0.018478 -0.007071
v 0.005412 0.018478 -0.005412
v 0.010000 0.014142 -0.010000
v 0.013066 0.007654 -0.013066
v 0.014142 -0.000000 -0.014142
v 0.013066 -0.007654 -0.013066
v 0.010000 -0.014142 -0.010000
v 0.005412 -0.018478 -0.005412
v 0.007071 0.018478 -0.002929
v 0.013066 0.014142 -0.005412
v 0.017071 0.007654 -0.007071
v 0.018478 -0.000000 -0.007654
v 0.017071 -0.007654 -0.007071
v 0.013066 -0.014142 -0.005412
v 0.007071 -0.018478 -0.002929
v 0.007654 0.018478 0.000000
v 0.014142 0.014142 0.000000
v 0.018478 0.007654 0.000000
v 0.020000 -0.000000 0.000000
v 0.018478 -0.007654 0.000000
v 0.014142 -0.014142 0.000000
v 0.007654 -0.018478 0.000000
v 0.007071 0.018478 0.002929
v 0.013066 0.014142 0.005412
v 0.017071 0.007654 0.007071
v 0.018478 -0.000000 0.007654
v 0.017071 -0.007654 0.007071
v 0.013066 -0.014142 0.005412
v 0.007071 -0.018478 0.002929
v 0.005412 0.018478 0.005412
v 0.010000 0.014142 0.010000
v 0.013066 0.007654 0.013066
v 0.014142 -0.000000 0.014142
v 0.013066 -0.007654 0.013066
v 0.010000 -0.014142 0.010000
v 0.005412 -0.018478 0.005412
v 0.002929 0.018478 0.007071
v 0.005412 0.014142 0.013066
v 0.007071 0.007654 0.017071
v 0.007654 -0.000000 0.018478
v 0.007071 -0.007654 0.017071
v 0.005412 -0.014142 0.013066
v 0.002929 -0.018478 0.007071
v -0.000000 0.020000 0.000000
v -0.000000 0.018478 0.007654
v -0.000000 0.014142 0.014142
v -0.000000 0.007654 0.018478
v -0.000000 -0.000000 0.020000
v -0.000000 -0.007654 0.018478
v -0.000000 -0.014142 0.014142
v -0.000000 -0.018478 0.007654
v -0.002929 0.018478 0.007071
v -0.005412 0.014142 0.013066
v -0.007071 0.007654 0.017071
v -0.007654 -0.000000 0.018478
v -0.007071 -0.007654 0.017071
v -0.005412 -0.014142 0.013066
v -0.002929 -0.018478 0.007071
v -0.005412 0.018478 0.005412
v -0.010000 0.014142 0.010000
v -0.013066 0.007654 0.013066
v -0.014142 -0.000000 0.014142
v -0.013066 -0.007654 0.013066
v -0.010000 -0.014142 0.010000
v -0.005412 -0.018478 0.005412
v 0.000000 -0.020000 0.000000
v -0.007071 0.018478 0.002929
v -0.013066 0.014142 0.005412
v -0.017071 0.007654 0.007071
v -0.018478 -0.000000 0.007654
v -0.017071 -0.007654 0.007071
v -0.013066 -0.014142 0.005412
v -0.007071 -0.018478 0.002929
v -0.007654 0.018478 -0.000000
v -0.014142 0.014142 -0.000000
v -0.018478 0.007654 -0.000000
v -0.020000 -0.000000 -0.000000
v -0.018478 -0.007654 -0.000000
v -0.014142 -0.014142 -0.000000
v -0.007654 -0.018478 -0.000000
v -0.007071 0.018478 -0.002929
v -0.013066 0.014142 -0.005412
v -0.017071 0.007654 -0.007071
v -0.018478 -0.000000 -0.007654
v -0.017071 -0.007654 -0.007071
v -0.013066 -0.014142 -0.005412
v -0.007071 -0.018478 -0.002929
v -0.005412 0.018478 -0.005412
v -0.010000 0.014142 -0.010000
v -0.013066 0.007654 -0.013066
v -0.014142 -0.000000 -0.014142
v -0.013066 -0.007654 -0.013066
v -0.010000 -0.014142 -0.010000
v -0.005412 -0.018478 -0.005412
v -0.002929 0.018478 -0.007071
v -0.005412 0.014142 -0.013066
v -0.007071 0.007654 -0.017071
v -0.007654 -0.000000 -0.018478
v -0.007071 -0.007654 -0.017071
v -0.005412 -0.014142 -0.013066
v -0.002929 -0.018478 -0.007071
v 0.000000 0.018478 -0.007654
v 0.000000 -0.000000 -0.020000
v 0.000000 -0.014142 -0.014142
vt 0.750000 0.125000
vt 0.750000 0.250000
vt 0.687500 0.250000
vt 0.687500 0.125000
vt 0.750000 0.375000
vt 0.750000 0.500000
vt 0.687500 0.500000
vt 0.687500 0.375000
vt 0.750000 0.625000
vt 0.750000 0.750000
vt 0.687500 0.750000
vt 0.687500 0.625000
vt 0.750000 0.875000
vt 0.718750 1.000000
vt 0.687500 0.875000
vt 0.718750 0.000000
vt 0.656250 0.000000
vt 0.625000 0.125000
vt 0.625000 0.375000
vt 0.625000 0.250000
vt 0.625000 0.625000
vt 0.625000 0.500000
vt 0.625000 0.875000
vt 0.625000 0.750000
vt 0.656250 1.000000
vt 0.562500 0.625000
vt 0.562500 0.500000
vt 0.562500 0.875000
vt 0.562500 0.750000
vt 0.562500 0.250000
vt 0.562500 0.125000
vt 0.562500 0.375000
vt 0.593750 1.000000
vt 0.593750 0.000000
vt 0.500000 0.250000
vt 0.500000 0.125000
vt 0.500000 0.500000
vt 0.500000 0.375000
vt 0.500000 0.750000
vt 0.500000 0.625000
vt 0.531250 1.000000
vt 0.500000 0.875000
vt 0.531250 0.000000
vt 0.437500 0.750000
vt 0.437500 0.625000
vt 0.468750 1.000000
vt 0.437500 0.875000
vt 0.468750 0.000000
vt 0.437500 0.125000
vt 0.437500 0.375000
vt 0.437500 0.250000
vt 0.437500 0.500000
vt 0.406250 0.000000
vt 0.375000 0.125000
vt 0.375000 0.375000
vt 0.375000 0.250000
vt 0.375000 0.625000
vt 0.375000 0.500000
vt 0.375000 0.875000
vt 0.375000 0.750000
vt 0.406250 1.000000
vt 0.312500 0.875000
vt 0.312500 0.750000
vt 0.312500 0.250000
vt 0.312500 0.125000
vt 0.312500 0.500000
vt 0.312500 0.375000
vt 0.312500 0.625000
vt 0.343750 1.000000
vt 0.343750 0.000000
vt 0.250000 0.250000
vt 0.250000 0.125000
vt 0.250000 0.500000
vt 0.250000 0.375000
vt 0.250000 0.750000
vt 0.250000 0.625000
vt 0.281250 1.000000
vt 0.250000 0.875000
vt 0.281250 0.000000
vt 0.218750 1.000000
vt 0.187500 0.875000
vt 0.218750 0.000000
vt 0.187500 0.125000
vt 0.187500 0.375000
vt 0.187500 0.250000
vt 0.187500 0.625000
vt 0.187500 0.500000
vt 0.187500 0.750000
vt 0.125000 0.375000
vt 0.125000 0.250000
vt 0.125000 0.625000
vt 0.125000 0.500000
vt 0.125000 0.875000
vt 0.125000 0.750000
vt 0.125000 0.125000
vt 0.156250 1.000000
vt 0.156250 0.000000
vt 0.062500 0.250000
vt 0.062500 0.125000
vt 0.062500 0.500000
vt 0.062500 0.375000
vt 0.062500 0.750000
vt 0.062500 0.625000
vt 0.093750 1.000000
vt 0.062500 0.875000
vt 0.093750 0.000000
vt 0.000000 0.500000
vt 0.000000 0.375000
vt 0.000000 0.750000
vt 0.000000 0.625000
vt 0.031250 1.000000
vt 0.000000 0.875000
vt 0.031250 0.000000
vt 0.000000 0.125000
vt 0.000000 0.250000
vt 0.968750 0.000000
vt 1.000000 0.125000
vt 0.937500 0.125000
vt 1.000000 0.250000
vt 1.000000 0.375000
vt 0.937500 0.375000
vt 0.937500 0.250000
vt 1.000000 0.500000
vt 1.000000 0.625000
vt 0.937500 0.625000
vt 0.937500 0.500000
vt 1.000000 0.750000
vt 1.000000 0.875000
vt 0.937500 0.875000
vt 0.937500 0.750000
vt 0.968750 1.000000
vt 0.875000 0.625000
vt 0.875000 0.500000
vt 0.875000 0.875000
vt 0.875000 0.750000
vt 0.875000 0.250000
vt 0.875000 0.125000
vt 0.875000 0.375000
vt 0.906250 1.000000
vt 0.906250 0.000000
vt 0.812500 0.250000
vt 0.812500 0.125000
vt 0.812500 0.500000
vt 0.812500 0.375000
vt 0.812500 0.750000
vt 0.812500 0.625000
vt 0.843750 1.000000
vt 0.812500 0.875000
vt 0.843750 0.000000
vt 0.781250 1.000000
vt 0.781250 0.000000
vn 0.1098 -0.8264 -0.5522
vn 0.1915 -0.1915 -0.9626
vn 0.1632 0.5481 -0.8203
vn 0.0388 0.9800 -0.1949
vn 0.0388 -0.9800 -0.1949
vn 0.1632 -0.5481 -0.8203
vn 0.1915 0.1915 -0.9626
vn 0.1098 0.8264 -0.5522
vn 0.1104 -0.9800 -0.1653
vn 0.4647 -0.5481 -0.6954
vn 0.5453 0.1915 -0.8161
vn 0.3128 0.8264 -0.4681
vn 0.3128 -0.8264 -0.4681
vn 0.5453 -0.1915 -0.8161
vn 0.4647 0.5481 -0.6954
vn 0.1104 0.9800 -0.1653
vn 0.8161 0.1915 -0.5453
vn 0.4681 0.8264 -0.3128
vn 0.4681 -0.8264 -0.3128
vn 0.8161 -0.1915 -0.5453
vn 0.6954 0.5481 -0.4647
vn 0.1653 0.9800 -0.1104
vn 0.1653 -0.9800 -0.1104
vn 0.6954 -0.5481 -0.4647
vn 0.5522 -0.8264 -0.1098
vn 0.9626 -0.1915 -0.1915
vn 0.8203 0.5481 -0.1632
vn 0.1949 0.9800 -0.0388
vn 0.1949 -0.9800 -0.0388
vn 0.8203 -0.5481 -0.1632
vn 0.9626 0.1915 -0.1915
vn 0.5522 0.8264 -0.1098
vn 0.8203 0.5481 0.1632
vn 0.1949 0.9800 0.0388
vn 0.1949 -0.9800 0.0388
vn 0.8203 -0.5481 0.1632
vn 0.9626 0.1915 0.1915
vn 0.5522 0.8264 0.1098
vn 0.5522 -0.8264 0.1098
vn 0.9626 -0.1915 0.1915
vn 0.1653 -0.9800 0.1104
vn 0.6954 -0.5481 0.4647
vn 0.8161 0.1915 0.5453
vn 0.4681 0.8264 0.3128
vn 0.4681 -0.8264 0.3128
vn 0.8161 -0.1915 0.5453
vn 0.6954 0.5481 0.4647
vn 0.1653 0.9800 0.1104
vn 0.3128 0.8264 0.4681
vn 0.3128 -0.8264 0.4681
vn 0.5453 -0.1915 0.8161
vn 0.4647 0.5481 0.6954
vn 0.1104 0.9800 0.1653
vn 0.1104 -0.9800 0.1653
vn 0.4647 -0.5481 0.6954
vn 0.5453 0.1915 0.8161
vn 0.1098 -0.8264 0.5522
vn 0.1915 -0.1915 0.9626
vn 0.1632 0.5481 0.8203
vn 0.0388 0.9800 0.1949
vn 0.0388 -0.9800 0.1949
vn 0.1632 -0.5481 0.8203
vn 0.1915 0.1915 0.9626
vn 0.1098 0.8264 0.5522
vn -0.0388 0.9800 0.1949
vn -0.0388 -0.9800 0.1949
vn -0.1632 -0.5481 0.8203
vn -0.1915 0.1915 0.9626
vn -0.1098 0.8264 0.5522
vn -0.1098 -0.8264 0.5522
vn -0.1915 -0.1915 0.9626
vn -0.1632 0.5481 0.8203
vn -0.4647 -0.5481 0.6954
vn -0.5453 0.1915 0.8161
vn -0.3128 0.8264 0.4681
vn -0.3128 -0.8264 0.4681
vn -0.5453 -0.1915 0.8161
vn -0.4647 0.5481 0.6954
vn -0.1104 0.9800 0.1653
vn -0.1104 -0.9800 0.1653
vn -0.4681 -0.8264 0.3128
vn -0.8161 -0.1915 0.5453
vn -0.6954 0.5481 0.4647
vn -0.1653 0.9800 0.1104
vn -0.1653 -0.9800 0.1104
vn -0.6954 -0.5481 0.4647
vn -0.8161 0.1915 0.5453
vn -0.4681 0.8264 0.3128
vn -0.9626 -0.1915 0.1915
vn -0.8203 0.5481 0.1632
vn -0.1949 0.9800 0.0388
vn -0.1949 -0.9800 0.0388
vn -0.8203 -0.5481 0.1632
vn -0.9626 0.1915 0.1915
vn -0.5522 0.8264 0.1098
vn -0.5522 -0.8264 0.1098
vn -0.1949 -0.9800 -0.0388
vn -0.8203 -0.5481 -0.1632
vn -0.9626 0.1915 -0.1915
vn -0.5522 0.8264 -0.1098
vn -0.5522 -0.8264 -0.1098
vn -0.9626 -0.1915 -0.1915
vn -0.8203 0.5481 -0.1632
vn -0.1949 0.9800 -0.0388
vn -0.8161 0.1915 -0.5453
vn -0.4681 0.8264 -0.3128
vn -0.4681 -0.8264 -0.3128
vn -0.8161 -0.1915 -0.5453
vn -0.6954 0.5481 -0.4647
vn -0.1653 0.9800 -0.1104
vn -0.1653 -0.9800 -0.1104
vn -0.6954 -0.5481 -0.4647
vn -0.3128 -0.8264 -0.4681
vn -0.5453 -0.1915 -0.8161
vn -0.4647 0.5481 -0.6954
vn -0.1104 0.9800 -0.1653
vn -0.1104 -0.9800 -0.1653
vn -0.4647 -0.5481 -0.6954
vn -0.5453 0.1915 -0.8161
vn -0.3128 0.8264 -0.4681
vn -0.1632 0.5481 -0.8203
vn -0.0388 0.9800 -0.1949
vn -0.0388 -0.9800 -0.1949
vn -0.1632 -0.5481 -0.8203
vn -0.1915 0.1915 -0.9626
vn -0.1098 0.8264 -0.5522
vn -0.1098 -0.8264 -0.5522
vn -0.1915 -0.1915 -0.9626
usemtl None
s off
f 4/1/1 114/2/1 10/3/1 11/4/1
f 3/5/2 113/6/2 8/7/2 9/8/2
f 2/9/3 1/10/3 6/11/3 7/12/3
f 112/13/4 54/14/4 5/15/4
f 76/16/5 4/1/5 11/4/5
f 114/2/6 3/5/6 9/8/6 10/3/6
f 113/6/7 2/9/7 7/12/7 8/7/7
f 1/10/8 112/13/8 5/15/8 6/11/8
f 76/17/9 11/4/9 18/18/9
f 10/3/10 9/8/10 16/19/10 17/20/10
f 8/7/11 7/12/11 14/21/11 15/22/11
f 6/11/12 5/15/12 12/23/12 13/24/12
f 11/4/13 10/3/13 17/20/13 18/18/13
f 9/8/14 8/7/14 15/22/14 16/19/14
f 7/12/15 6/11/15 13/24/15 14/21/15
f 5/15/16 54/25/16 12/23/16
f 15/22/17 14/21/17 21/26/17 22/27/17
f 13/24/18 12/23/18 19/28/18 20/29/18
f 18/18/19 17/20/19 24/30/19 25/31/19
f 16/19/20 15/22/20 22/27/20 23/32/20
f 14/21/21 13/24/21 20/29/21 21/26/21
f 12/23/22 54/33/22 19/28/22
f 76/34/23 18/18/23 25/31/23
f 17/20/24 16/19/24 23/32/24 24/30/24
f 25/31/25 24/30/25 31/35/25 32/36/25
f 23/32/26 22/27/26 29/37/26 30/38/26
f 21/26/27 20/29/27 27/39/27 28/40/27
f 19/28/28 54/41/28 26/42/28
f 76/43/29 25/31/29 32/36/29
f 24/30/30 23/32/30 30/38/30 31/35/30
f 22/27/31 21/26/31 28/40/31 29/37/31
f 20/29/32 19/28/32 26/42/32 27/39/32
f 28/40/33 27/39/33 34/44/33 35/45/33
f 26/42/34 54/46/34 33/47/34
f 76/48/35 32/36/35 39/49/35
f 31/35/36 30/38/36 37/50/36 38/51/36
f 29/37/37 28/40/37 35/45/37 36/52/37
f 27/39/38 26/42/38 33/47/38 34/44/38
f 32/36/39 31/35/39 38/51/39 39/49/39
f 30/38/40 29/37/40 36/52/40 37/50/40
f 76/53/41 39/49/41 46/54/41
f 38/51/42 37/50/42 44/55/42 45/56/42
f 36/52/43 35/45/43 42/57/43 43/58/43
f 34/44/44 33/47/44 40/59/44 41/60/44
f 39/49/45 38/51/45 45/56/45 46/54/45
f 37/50/46 36/52/46 43/58/46 44/55/46
f 35/45/47 34/44/47 41/60/47 42/57/47
f 33/47/48 54/61/48 40/59/48
f 41/60/49 40/59/49 47/62/49 48/63/49
f 46/54/50 45/56/50 52/64/50 53/65/50
f 44/55/51 43/58/51 50/66/51 51/67/51
f 42/57/52 41/60/52 48/63/52 49/68/52
f 40/59/53 54/69/53 47/62/53
f 76/70/54 46/54/54 53/65/54
f 45/56/55 44/55/55 51/67/55 52/64/55
f 43/58/56 42/57/56 49/68/56 50/66/56
f 53/65/57 52/64/57 60/71/57 61/72/57
f 51/67/58 50/66/58 58/73/58 59/74/58
f 49/68/59 48/63/59 56/75/59 57/76/59
f 47/62/60 54/77/60 55/78/60
f 76/79/61 53/65/61 61/72/61
f 52/64/62 51/67/62 59/74/62 60/71/62
f 50/66/63 49/68/63 57/76/63 58/73/63
f 48/63/64 47/62/64 55/78/64 56/75/64
f 55/78/65 54/80/65 62/81/65
f 76/82/66 61/72/66 68/83/66
f 60/71/67 59/74/67 66/84/67 67/85/67
f 58/73/68 57/76/68 64/86/68 65/87/68
f 56/75/69 55/78/69 62/81/69 63/88/69
f 61/72/70 60/71/70 67/85/70 68/83/70
f 59/74/71 58/73/71 65/87/71 66/84/71
f 57/76/72 56/75/72 63/88/72 64/86/72
f 67/85/73 66/84/73 73/89/73 74/90/73
f 65/87/74 64/86/74 71/91/74 72/92/74
f 63/88/75 62/81/75 69/93/75 70/94/75
f 68/83/76 67/85/76 74/90/76 75/95/76
f 66/84/77 65/87/77 72/92/77 73/89/77
f 64/86/78 63/88/78 70/94/78 71/91/78
f 62/81/79 54/96/79 69/93/79
f 76/97/80 68/83/80 75/95/80
f 75/95/81 74/90/81 82/98/81 83/99/81
f 73/89/82 72/92/82 80/100/82 81/101/82
f 71/91/83 70/94/83 78/102/83 79/103/83
f 69/93/84 54/104/84 77/105/84
f 76/106/85 75/95/85 83/99/85
f 74/90/86 73/89/86 81/101/86 82/98/86
f 72/92/87 71/91/87 79/103/87 80/100/87
f 70/94/88 69/93/88 77/105/88 78/102/88
f 81/101/89 80/100/89 87/107/89 88/108/89
f 79/103/90 78/102/90 85/109/90 86/110/90
f 77/105/91 54/111/91 84/112/91
f 76/113/92 83/99/92 90/114/92
f 82/98/93 81/101/93 88/108/93 89/115/93
f 80/100/94 79/103/94 86/110/94 87/107/94
f 78/102/95 77/105/95 84/112/95 85/109/95
f 83/99/96 82/98/96 89/115/96 90/114/96
f 76/116/97 90/117/97 97/118/97
f 89/119/98 88/120/98 95/121/98 96/122/98
f 87/123/99 86/124/99 93/125/99 94/126/99
f 85/127/100 84/128/100 91/129/100 92/130/100
f 90/117/101 89/119/101 96/122/101 97/118/101
f 88/120/102 87/123/102 94/126/102 95/121/102
f 86/124/103 85/127/103 92/130/103 93/125/103
f 84/128/104 54/131/104 91/129/104
f 94/126/105 93/125/105 100/132/105 101/133/105
f 92/130/106 91/129/106 98/134/106 99/135/106
f 97/118/107 96/122/107 103/136/107 104/137/107
f 95/121/108 94/126/108 101/133/108 102/138/108
f 93/125/109 92/130/109 99/135/109 100/132/109
f 91/129/110 54/139/110 98/134/110
f 76/140/111 97/118/111 104/137/111
f 96/122/112 95/121/112 102/138/112 103/136/112
f 104/137/113 103/136/113 110/141/113 111/142/113
f 102/138/114 101/133/114 108/143/114 109/144/114
f 100/132/115 99/135/115 106/145/115 107/146/115
f 98/134/116 54/147/116 105/148/116
f 76/149/117 104/137/117 111/142/117
f 103/136/118 102/138/118 109/144/118 110/141/118
f 101/133/119 100/132/119 107/146/119 108/143/119
f 99/135/120 98/134/120 105/148/120 106/145/120
f 107/146/121 106/145/121 1/10/121 2/9/121
f 105/148/122 54/150/122 112/13/122
f 76/151/123 111/142/123 4/1/123
f 110/141/124 109/144/124 3/5/124 114/2/124
f 108/143/125 107/146/125 2/9/125 113/6/125
f 106/145/126 105/148/126 112/13/126 1/10/126
f 111/142/127 110/141/127 114/2/127 4/1/127
f 109/144/128 108/143/128 113/6/128 3/5/128
